<?xml version="1.0" encoding="UTF-8" standalone="no"?>
<!-- Created with Inkscape (http://www.inkscape.org/) -->

<svg
   xmlns:dc="http://purl.org/dc/elements/1.1/"
   xmlns:cc="http://creativecommons.org/ns#"
   xmlns:rdf="http://www.w3.org/1999/02/22-rdf-syntax-ns#"
   xmlns:svg="http://www.w3.org/2000/svg"
   xmlns="http://www.w3.org/2000/svg"
   xmlns:xlink="http://www.w3.org/1999/xlink"
   xmlns:sodipodi="http://sodipodi.sourceforge.net/DTD/sodipodi-0.dtd"
   xmlns:inkscape="http://www.inkscape.org/namespaces/inkscape"
   width="50"
   height="50"
   viewBox="0 0 13.229166 13.229166"
   version="1.1"
   id="svg8"
   inkscape:version="0.92.2 5c3e80d, 2017-08-06"
   sodipodi:docname="menu-closed-button.svg">
  <defs
     id="defs2">
    <linearGradient
       inkscape:collect="always"
       id="linearGradient4928">
      <stop
         style="stop-color:#2d6074;stop-opacity:1;"
         offset="0"
         id="stop4924" />
      <stop
         style="stop-color:#2d6074;stop-opacity:0;"
         offset="1"
         id="stop4926" />
    </linearGradient>
    <linearGradient
       inkscape:collect="always"
       id="linearGradient4591">
      <stop
         style="stop-color:#1e1e1e;stop-opacity:1;"
         offset="0"
         id="stop4587" />
      <stop
         style="stop-color:#1e1e1e;stop-opacity:0;"
         offset="1"
         id="stop4589" />
    </linearGradient>
    <linearGradient
       id="linearGradient4566"
       inkscape:collect="always">
      <stop
         id="stop4570"
         offset="0"
         style="stop-color:#1e1e1e;stop-opacity:1;" />
      <stop
         id="stop4572"
         offset="1"
         style="stop-color:#1e1e1e;stop-opacity:0;" />
    </linearGradient>
    <radialGradient
       inkscape:collect="always"
       xlink:href="#linearGradient4566"
       id="radialGradient4568"
       cx="20.053034"
       cy="20.071581"
       fx="20.053034"
       fy="20.071581"
       r="19.874907"
       gradientTransform="matrix(1,0,0,1.0007506,0,-0.01506474)"
       gradientUnits="userSpaceOnUse" />
    <radialGradient
       inkscape:collect="always"
       xlink:href="#linearGradient4591"
       id="radialGradient4593"
       cx="20.053034"
       cy="20.071581"
       fx="20.053034"
       fy="20.071581"
       r="19.874907"
       gradientTransform="matrix(1,0,0,1.0007506,0,-0.01506474)"
       gradientUnits="userSpaceOnUse" />
    <radialGradient
       inkscape:collect="always"
       xlink:href="#linearGradient4928"
       id="radialGradient4932"
       cx="20.027674"
       cy="20.052223"
       fx="20.027674"
       fy="20.052223"
       r="21.791658"
       gradientTransform="matrix(1,0,0,1.0009196,0,-0.01844006)"
       gradientUnits="userSpaceOnUse" />
  </defs>
  <sodipodi:namedview
     id="base"
     pagecolor="#ffffff"
     bordercolor="#666666"
     borderopacity="1.0"
     inkscape:pageopacity="0.0"
     inkscape:pageshadow="2"
     inkscape:zoom="11.2"
     inkscape:cx="18.002377"
     inkscape:cy="25.612491"
     inkscape:document-units="mm"
     inkscape:current-layer="layer1"
     showgrid="true"
     units="px"
     inkscape:pagecheckerboard="true"
     inkscape:showpageshadow="false"
     inkscape:window-width="1440"
     inkscape:window-height="816"
     inkscape:window-x="3"
     inkscape:window-y="0"
     inkscape:window-maximized="0" />
  <metadata
     id="metadata5">
    <rdf:RDF>
      <cc:Work
         rdf:about="">
        <dc:format>image/svg+xml</dc:format>
        <dc:type
           rdf:resource="http://purl.org/dc/dcmitype/StillImage" />
        <dc:title></dc:title>
      </cc:Work>
    </rdf:RDF>
  </metadata>
  <g
     inkscape:label="Layer 1"
     inkscape:groupmode="layer"
     id="layer1"
     transform="translate(0,-283.77084)">
    <path
       style="opacity:0;fill:#1e1e1e;fill-opacity:1;stroke-width:0.08928572"
       d="M 18.472072,39.901309 C 11.437778,39.314642 5.2712791,35.107443 2.178996,28.78508 0.89693027,26.163817 0.26447399,23.650128 0.15717169,20.749365 -0.22170155,10.507073 7.2923102,1.6425688 17.485747,0.30632606 19.550031,0.03572199 22.387298,0.16333298 24.431792,0.61873658 32.06999,2.3201166 38.085268,8.5311043 39.593865,16.274112 c 1.10596,5.676444 -0.378255,11.680361 -4.008802,16.216325 -1.635723,2.043652 -4.108269,4.067853 -6.418171,5.254369 -3.213545,1.650685 -7.177058,2.449888 -10.69482,2.156503 z"
       id="path3719"
       inkscape:connector-curvature="0"
       transform="matrix(0.26458333,0,0,0.26458333,0,286.41667)" />
    <path
       style="opacity:0;fill:#1e1e1e;fill-opacity:1;stroke-width:0.08928572"
       d="M 18.961621,39.936264 C 16.077776,39.724382 13.643553,39.077458 11.253473,37.887734 9.1036493,36.817604 7.5669395,35.708639 5.8765964,34.007515 3.0029372,31.115528 1.1447439,27.487529 0.38933938,23.294008 0.19081838,22.191948 0.10861976,19.07403 0.24656745,17.878453 0.76821633,13.357384 2.7869833,9.1609716 5.9729624,5.9749928 8.9186939,3.0292617 12.544446,1.1599843 16.818764,0.3833772 c 1.255323,-0.22808155 4.279268,-0.27196866 5.765134,-0.0836705 4.370263,0.55382718 8.350334,2.5148734 11.513465,5.672873 3.101087,3.0960553 5.01207,6.9135233 5.676326,11.3392853 0.206536,1.376099 0.205493,4.131871 -0.0021,5.491072 C 38.5179,31.01234 32.666493,37.459312 24.709693,39.397878 23.07811,39.79539 20.425651,40.04383 18.961619,39.936264 Z"
       id="path4526"
       inkscape:connector-curvature="0"
       transform="matrix(0.26458333,0,0,0.26458333,0,286.41667)" />
    <path
       style="opacity:0;fill:#1e1e1e;fill-opacity:1;stroke-width:0.08928572"
       d="M 18.961621,39.936264 C 16.077776,39.724382 13.643553,39.077458 11.253473,37.887734 9.1036493,36.817604 7.5669395,35.708639 5.8765964,34.007515 3.0029372,31.115528 1.1447439,27.487529 0.38933938,23.294008 0.19081838,22.191948 0.10861976,19.07403 0.24656745,17.878453 0.76821633,13.357384 2.7869833,9.1609716 5.9729624,5.9749928 8.9186939,3.0292617 12.544446,1.1599843 16.818764,0.3833772 c 1.255323,-0.22808155 4.279268,-0.27196866 5.765134,-0.0836705 4.370263,0.55382718 8.350334,2.5148734 11.513465,5.672873 3.101087,3.0960553 5.01207,6.9135233 5.676326,11.3392853 0.206536,1.376099 0.205493,4.131871 -0.0021,5.491072 C 38.5179,31.01234 32.666493,37.459312 24.709693,39.397878 23.07811,39.79539 20.425651,40.04383 18.961619,39.936264 Z"
       id="path4528"
       inkscape:connector-curvature="0"
       transform="matrix(0.26458333,0,0,0.26458333,0,286.41667)" />
    <path
       style="opacity:0;fill:#1e1e1e;fill-opacity:1;stroke-width:0.08928572"
       d="M 18.961621,39.936264 C 16.077776,39.724382 13.643553,39.077458 11.253473,37.887734 9.1036493,36.817604 7.5669395,35.708639 5.8765964,34.007515 3.0029372,31.115528 1.1447439,27.487529 0.38933938,23.294008 0.19081838,22.191948 0.10861976,19.07403 0.24656745,17.878453 0.76821633,13.357384 2.7869833,9.1609716 5.9729624,5.9749928 8.9186939,3.0292617 12.544446,1.1599843 16.818764,0.3833772 c 1.255323,-0.22808155 4.279268,-0.27196866 5.765134,-0.0836705 4.370263,0.55382718 8.350334,2.5148734 11.513465,5.672873 3.101087,3.0960553 5.01207,6.9135233 5.676326,11.3392853 0.206536,1.376099 0.205493,4.131871 -0.0021,5.491072 C 38.5179,31.01234 32.666493,37.459312 24.709693,39.397878 23.07811,39.79539 20.425651,40.04383 18.961619,39.936264 Z"
       id="path4530"
       inkscape:connector-curvature="0"
       transform="matrix(0.26458333,0,0,0.26458333,0,286.41667)" />
    <path
       style="opacity:0;fill:#1e1e1e;fill-opacity:1;stroke-width:0.08928572"
       d="M 18.961621,39.936264 C 16.077776,39.724382 13.643553,39.077458 11.253473,37.887734 9.1036493,36.817604 7.5669395,35.708639 5.8765964,34.007515 3.0029372,31.115528 1.1447439,27.487529 0.38933938,23.294008 0.19081838,22.191948 0.10861976,19.07403 0.24656745,17.878453 0.76821633,13.357384 2.7869833,9.1609716 5.9729624,5.9749928 8.9186939,3.0292617 12.544446,1.1599843 16.818764,0.3833772 c 1.255323,-0.22808155 4.279268,-0.27196866 5.765134,-0.0836705 4.370263,0.55382718 8.350334,2.5148734 11.513465,5.672873 3.101087,3.0960553 5.01207,6.9135233 5.676326,11.3392853 0.206536,1.376099 0.205493,4.131871 -0.0021,5.491072 C 38.5179,31.01234 32.666493,37.459312 24.709693,39.397878 23.07811,39.79539 20.425651,40.04383 18.961619,39.936264 Z"
       id="path4532"
       inkscape:connector-curvature="0"
       transform="matrix(0.26458333,0,0,0.26458333,0,286.41667)" />
    <path
       style="opacity:0;fill:#1e1e1e;fill-opacity:1;stroke-width:0.08928572"
       d="M 18.961621,39.936264 C 16.077776,39.724382 13.643553,39.077458 11.253473,37.887734 9.1036493,36.817604 7.5669395,35.708639 5.8765964,34.007515 3.0029372,31.115528 1.1447439,27.487529 0.38933938,23.294008 0.19081838,22.191948 0.10861976,19.07403 0.24656745,17.878453 0.76821633,13.357384 2.7869833,9.1609716 5.9729624,5.9749928 8.9186939,3.0292617 12.544446,1.1599843 16.818764,0.3833772 c 1.255323,-0.22808155 4.279268,-0.27196866 5.765134,-0.0836705 4.370263,0.55382718 8.350334,2.5148734 11.513465,5.672873 3.101087,3.0960553 5.01207,6.9135233 5.676326,11.3392853 0.206536,1.376099 0.205493,4.131871 -0.0021,5.491072 C 38.5179,31.01234 32.666493,37.459312 24.709693,39.397878 23.07811,39.79539 20.425651,40.04383 18.961619,39.936264 Z"
       id="path4534"
       inkscape:connector-curvature="0"
       transform="matrix(0.26458333,0,0,0.26458333,0,286.41667)" />
    <path
       style="opacity:0;fill:#1e1e1e;fill-opacity:1;stroke-width:0.08928572"
       d="M 18.961621,39.936264 C 16.077776,39.724382 13.643553,39.077458 11.253473,37.887734 9.1036493,36.817604 7.5669395,35.708639 5.8765964,34.007515 3.0029372,31.115528 1.1447439,27.487529 0.38933938,23.294008 0.19081838,22.191948 0.10861976,19.07403 0.24656745,17.878453 0.76821633,13.357384 2.7869833,9.1609716 5.9729624,5.9749928 8.9186939,3.0292617 12.544446,1.1599843 16.818764,0.3833772 c 1.255323,-0.22808155 4.279268,-0.27196866 5.765134,-0.0836705 4.370263,0.55382718 8.350334,2.5148734 11.513465,5.672873 3.101087,3.0960553 5.01207,6.9135233 5.676326,11.3392853 0.206536,1.376099 0.205493,4.131871 -0.0021,5.491072 C 38.5179,31.01234 32.666493,37.459312 24.709693,39.397878 23.07811,39.79539 20.425651,40.04383 18.961619,39.936264 Z"
       id="path4536"
       inkscape:connector-curvature="0"
       transform="matrix(0.26458333,0,0,0.26458333,0,286.41667)" />
    <path
       style="opacity:0;fill:#1e1e1e;fill-opacity:1;stroke-width:0.08928572"
       d="M 18.961621,39.936264 C 16.077776,39.724382 13.643553,39.077458 11.253473,37.887734 9.1036493,36.817604 7.5669395,35.708639 5.8765964,34.007515 3.0029372,31.115528 1.1447439,27.487529 0.38933938,23.294008 0.19081838,22.191948 0.10861976,19.07403 0.24656745,17.878453 0.76821633,13.357384 2.7869833,9.1609716 5.9729624,5.9749928 8.9186939,3.0292617 12.544446,1.1599843 16.818764,0.3833772 c 1.255323,-0.22808155 4.279268,-0.27196866 5.765134,-0.0836705 4.370263,0.55382718 8.350334,2.5148734 11.513465,5.672873 3.101087,3.0960553 5.01207,6.9135233 5.676326,11.3392853 0.206536,1.376099 0.205493,4.131871 -0.0021,5.491072 C 38.5179,31.01234 32.666493,37.459312 24.709693,39.397878 23.07811,39.79539 20.425651,40.04383 18.961619,39.936264 Z"
       id="path4538"
       inkscape:connector-curvature="0"
       transform="matrix(0.26458333,0,0,0.26458333,0,286.41667)" />
    <path
       style="opacity:0;fill:#1e1e1e;fill-opacity:1;stroke-width:0.08928572"
       d="M 18.961621,39.936264 C 16.077776,39.724382 13.643553,39.077458 11.253473,37.887734 9.1036493,36.817604 7.5669395,35.708639 5.8765964,34.007515 3.0029372,31.115528 1.1447439,27.487529 0.38933938,23.294008 0.19081838,22.191948 0.10861976,19.07403 0.24656745,17.878453 0.76821633,13.357384 2.7869833,9.1609716 5.9729624,5.9749928 8.9186939,3.0292617 12.544446,1.1599843 16.818764,0.3833772 c 1.255323,-0.22808155 4.279268,-0.27196866 5.765134,-0.0836705 4.370263,0.55382718 8.350334,2.5148734 11.513465,5.672873 3.101087,3.0960553 5.01207,6.9135233 5.676326,11.3392853 0.206536,1.376099 0.205493,4.131871 -0.0021,5.491072 C 38.5179,31.01234 32.666493,37.459312 24.709693,39.397878 23.07811,39.79539 20.425651,40.04383 18.961619,39.936264 Z"
       id="path4540"
       inkscape:connector-curvature="0"
       transform="matrix(0.26458333,0,0,0.26458333,0,286.41667)" />
    <path
       style="opacity:0;fill:#1e1e1e;fill-opacity:0.39047624;stroke-width:0.08928572"
       d="M 18.961621,39.936264 C 16.077776,39.724382 13.643553,39.077458 11.253473,37.887734 9.1036493,36.817604 7.5669395,35.708639 5.8765964,34.007515 3.0029372,31.115528 1.1447439,27.487529 0.38933938,23.294008 0.19081838,22.191948 0.10861976,19.07403 0.24656745,17.878453 0.76821633,13.357384 2.7869833,9.1609716 5.9729624,5.9749928 8.9186939,3.0292617 12.544446,1.1599843 16.818764,0.3833772 c 1.255323,-0.22808155 4.279268,-0.27196866 5.765134,-0.0836705 4.370263,0.55382718 8.350334,2.5148734 11.513465,5.672873 3.101087,3.0960553 5.01207,6.9135233 5.676326,11.3392853 0.206536,1.376099 0.205493,4.131871 -0.0021,5.491072 C 38.5179,31.01234 32.666493,37.459312 24.709693,39.397878 23.07811,39.79539 20.425651,40.04383 18.961619,39.936264 Z"
       id="path4542"
       inkscape:connector-curvature="0"
       transform="matrix(0.26458333,0,0,0.26458333,0,286.41667)" />
    <path
       style="opacity:0;fill:#1e1e1e;fill-opacity:0.39047624;stroke-width:0.08928572"
       d="M 18.961621,39.936264 C 16.077776,39.724382 13.643553,39.077458 11.253473,37.887734 9.1036493,36.817604 7.5669395,35.708639 5.8765964,34.007515 3.0029372,31.115528 1.1447439,27.487529 0.38933938,23.294008 0.19081838,22.191948 0.10861976,19.07403 0.24656745,17.878453 0.76821633,13.357384 2.7869833,9.1609716 5.9729624,5.9749928 8.9186939,3.0292617 12.544446,1.1599843 16.818764,0.3833772 c 1.255323,-0.22808155 4.279268,-0.27196866 5.765134,-0.0836705 4.370263,0.55382718 8.350334,2.5148734 11.513465,5.672873 3.101087,3.0960553 5.01207,6.9135233 5.676326,11.3392853 0.206536,1.376099 0.205493,4.131871 -0.0021,5.491072 C 38.5179,31.01234 32.666493,37.459312 24.709693,39.397878 23.07811,39.79539 20.425651,40.04383 18.961619,39.936264 Z"
       id="path4544"
       inkscape:connector-curvature="0"
       transform="matrix(0.26458333,0,0,0.26458333,0,286.41667)" />
    <path
       style="opacity:0;fill:#1e1e1e;fill-opacity:0.39047624;stroke-width:0.08928572"
       d="M 18.961621,39.936264 C 16.077776,39.724382 13.643553,39.077458 11.253473,37.887734 9.1036493,36.817604 7.5669395,35.708639 5.8765964,34.007515 3.0029372,31.115528 1.1447439,27.487529 0.38933938,23.294008 0.19081838,22.191948 0.10861976,19.07403 0.24656745,17.878453 0.76821633,13.357384 2.7869833,9.1609716 5.9729624,5.9749928 8.9186939,3.0292617 12.544446,1.1599843 16.818764,0.3833772 c 1.255323,-0.22808155 4.279268,-0.27196866 5.765134,-0.0836705 4.370263,0.55382718 8.350334,2.5148734 11.513465,5.672873 3.101087,3.0960553 5.01207,6.9135233 5.676326,11.3392853 0.206536,1.376099 0.205493,4.131871 -0.0021,5.491072 C 38.5179,31.01234 32.666493,37.459312 24.709693,39.397878 23.07811,39.79539 20.425651,40.04383 18.961619,39.936264 Z"
       id="path4546"
       inkscape:connector-curvature="0"
       transform="matrix(0.26458333,0,0,0.26458333,0,286.41667)" />
    <path
       style="opacity:0;fill:#1e1e1e;fill-opacity:0.39047624;stroke-width:0.08928572"
       d="M 18.961621,39.936264 C 16.077776,39.724382 13.643553,39.077458 11.253473,37.887734 9.1036493,36.817604 7.5669395,35.708639 5.8765964,34.007515 3.0029372,31.115528 1.1447439,27.487529 0.38933938,23.294008 0.19081838,22.191948 0.10861976,19.07403 0.24656745,17.878453 0.76821633,13.357384 2.7869833,9.1609716 5.9729624,5.9749928 8.9186939,3.0292617 12.544446,1.1599843 16.818764,0.3833772 c 1.255323,-0.22808155 4.279268,-0.27196866 5.765134,-0.0836705 4.370263,0.55382718 8.350334,2.5148734 11.513465,5.672873 3.101087,3.0960553 5.01207,6.9135233 5.676326,11.3392853 0.206536,1.376099 0.205493,4.131871 -0.0021,5.491072 C 38.5179,31.01234 32.666493,37.459312 24.709693,39.397878 23.07811,39.79539 20.425651,40.04383 18.961619,39.936264 Z"
       id="path4548"
       inkscape:connector-curvature="0"
       transform="matrix(0.26458333,0,0,0.26458333,0,286.41667)" />
    <path
       style="opacity:0;fill:#1e1e1e;fill-opacity:1;stroke-width:0.08928572"
       d="M 18.961621,39.936264 C 16.077776,39.724382 13.643553,39.077458 11.253473,37.887734 9.1036493,36.817604 7.5669395,35.708639 5.8765964,34.007515 3.0029372,31.115528 1.1447439,27.487529 0.38933938,23.294008 0.19081838,22.191948 0.10861976,19.07403 0.24656745,17.878453 0.76821633,13.357384 2.7869833,9.1609716 5.9729624,5.9749928 8.9186939,3.0292617 12.544446,1.1599843 16.818764,0.3833772 c 1.255323,-0.22808155 4.279268,-0.27196866 5.765134,-0.0836705 4.370263,0.55382718 8.350334,2.5148734 11.513465,5.672873 3.101087,3.0960553 5.01207,6.9135233 5.676326,11.3392853 0.206536,1.376099 0.205493,4.131871 -0.0021,5.491072 C 38.5179,31.01234 32.666493,37.459312 24.709693,39.397878 23.07811,39.79539 20.425651,40.04383 18.961619,39.936264 Z"
       id="path4550"
       inkscape:connector-curvature="0"
       transform="matrix(0.26458333,0,0,0.26458333,0,286.41667)" />
    <path
       style="opacity:0;fill:#1e1e1e;fill-opacity:1;stroke-width:0.08928572"
       d="M 18.961621,39.936264 C 16.077776,39.724382 13.643553,39.077458 11.253473,37.887734 9.1036493,36.817604 7.5669395,35.708639 5.8765964,34.007515 3.0029372,31.115528 1.1447439,27.487529 0.38933938,23.294008 0.19081838,22.191948 0.10861976,19.07403 0.24656745,17.878453 0.76821633,13.357384 2.7869833,9.1609716 5.9729624,5.9749928 8.9186939,3.0292617 12.544446,1.1599843 16.818764,0.3833772 c 1.255323,-0.22808155 4.279268,-0.27196866 5.765134,-0.0836705 4.370263,0.55382718 8.350334,2.5148734 11.513465,5.672873 3.101087,3.0960553 5.01207,6.9135233 5.676326,11.3392853 0.206536,1.376099 0.205493,4.131871 -0.0021,5.491072 C 38.5179,31.01234 32.666493,37.459312 24.709693,39.397878 23.07811,39.79539 20.425651,40.04383 18.961619,39.936264 Z"
       id="path4552"
       inkscape:connector-curvature="0"
       transform="matrix(0.26458333,0,0,0.26458333,0,286.41667)" />
    <path
       style="opacity:0;fill:#1e1e1e;fill-opacity:1;stroke-width:0.08928572"
       d="M 18.961621,39.936264 C 16.077776,39.724382 13.643553,39.077458 11.253473,37.887734 9.1036493,36.817604 7.5669395,35.708639 5.8765964,34.007515 3.0029372,31.115528 1.1447439,27.487529 0.38933938,23.294008 0.19081838,22.191948 0.10861976,19.07403 0.24656745,17.878453 0.76821633,13.357384 2.7869833,9.1609716 5.9729624,5.9749928 8.9186939,3.0292617 12.544446,1.1599843 16.818764,0.3833772 c 1.255323,-0.22808155 4.279268,-0.27196866 5.765134,-0.0836705 4.370263,0.55382718 8.350334,2.5148734 11.513465,5.672873 3.101087,3.0960553 5.01207,6.9135233 5.676326,11.3392853 0.206536,1.376099 0.205493,4.131871 -0.0021,5.491072 C 38.5179,31.01234 32.666493,37.459312 24.709693,39.397878 23.07811,39.79539 20.425651,40.04383 18.961619,39.936264 Z"
       id="path4554"
       inkscape:connector-curvature="0"
       transform="matrix(0.26458333,0,0,0.26458333,0,286.41667)" />
    <path
       style="opacity:0;fill:#1e1e1e;fill-opacity:1;stroke-width:0.08928572"
       d="M 18.961621,39.936264 C 16.077776,39.724382 13.643553,39.077458 11.253473,37.887734 9.1036493,36.817604 7.5669395,35.708639 5.8765964,34.007515 3.0029372,31.115528 1.1447439,27.487529 0.38933938,23.294008 0.19081838,22.191948 0.10861976,19.07403 0.24656745,17.878453 0.76821633,13.357384 2.7869833,9.1609716 5.9729624,5.9749928 8.9186939,3.0292617 12.544446,1.1599843 16.818764,0.3833772 c 1.255323,-0.22808155 4.279268,-0.27196866 5.765134,-0.0836705 4.370263,0.55382718 8.350334,2.5148734 11.513465,5.672873 3.101087,3.0960553 5.01207,6.9135233 5.676326,11.3392853 0.206536,1.376099 0.205493,4.131871 -0.0021,5.491072 C 38.5179,31.01234 32.666493,37.459312 24.709693,39.397878 23.07811,39.79539 20.425651,40.04383 18.961619,39.936264 Z"
       id="path4556"
       inkscape:connector-curvature="0"
       transform="matrix(0.26458333,0,0,0.26458333,0,286.41667)" />
    <path
       style="opacity:0;fill:#1e1e1e;fill-opacity:1;stroke-width:0.08928572"
       d="M 18.961621,39.936264 C 16.077776,39.724382 13.643553,39.077458 11.253473,37.887734 9.1036493,36.817604 7.5669395,35.708639 5.8765964,34.007515 3.0029372,31.115528 1.1447439,27.487529 0.38933938,23.294008 0.19081838,22.191948 0.10861976,19.07403 0.24656745,17.878453 0.76821633,13.357384 2.7869833,9.1609716 5.9729624,5.9749928 8.9186939,3.0292617 12.544446,1.1599843 16.818764,0.3833772 c 1.255323,-0.22808155 4.279268,-0.27196866 5.765134,-0.0836705 4.370263,0.55382718 8.350334,2.5148734 11.513465,5.672873 3.101087,3.0960553 5.01207,6.9135233 5.676326,11.3392853 0.206536,1.376099 0.205493,4.131871 -0.0021,5.491072 C 38.5179,31.01234 32.666493,37.459312 24.709693,39.397878 23.07811,39.79539 20.425651,40.04383 18.961619,39.936264 Z"
       id="path4558"
       inkscape:connector-curvature="0"
       transform="matrix(0.26458333,0,0,0.26458333,0,286.41667)" />
    <path
       style="opacity:0;fill:url(#radialGradient4568);fill-opacity:1;stroke-width:0.08928572"
       d="M 18.961621,39.936264 C 16.077776,39.724382 13.643553,39.077458 11.253473,37.887734 9.1036493,36.817604 7.5669395,35.708639 5.8765964,34.007515 3.0029372,31.115528 1.1447439,27.487529 0.38933938,23.294008 0.19081838,22.191948 0.10861976,19.07403 0.24656745,17.878453 0.76821633,13.357384 2.7869833,9.1609716 5.9729624,5.9749928 8.9186939,3.0292617 12.544446,1.1599843 16.818764,0.3833772 c 1.255323,-0.22808155 4.279268,-0.27196866 5.765134,-0.0836705 4.370263,0.55382718 8.350334,2.5148734 11.513465,5.672873 3.101087,3.0960553 5.01207,6.9135233 5.676326,11.3392853 0.206536,1.376099 0.205493,4.131871 -0.0021,5.491072 C 38.5179,31.01234 32.666493,37.459312 24.709693,39.397878 23.07811,39.79539 20.425651,40.04383 18.961619,39.936264 Z"
       id="path4560"
       inkscape:connector-curvature="0"
       transform="matrix(0.26458333,0,0,0.26458333,0,286.41667)" />
    <path
       style="opacity:0;fill:#1e1e1e;fill-opacity:1;stroke-width:0.08928572"
       d="M 18.961621,39.936264 C 16.077776,39.724382 13.643553,39.077458 11.253473,37.887734 9.1036493,36.817604 7.5669395,35.708639 5.8765964,34.007515 3.0029372,31.115528 1.1447439,27.487529 0.38933938,23.294008 0.19081838,22.191948 0.10861976,19.07403 0.24656745,17.878453 0.76821633,13.357384 2.7869833,9.1609716 5.9729624,5.9749928 8.9186939,3.0292617 12.544446,1.1599843 16.818764,0.3833772 c 1.255323,-0.22808155 4.279268,-0.27196866 5.765134,-0.0836705 4.370263,0.55382718 8.350334,2.5148734 11.513465,5.672873 3.101087,3.0960553 5.01207,6.9135233 5.676326,11.3392853 0.206536,1.376099 0.205493,4.131871 -0.0021,5.491072 C 38.5179,31.01234 32.666493,37.459312 24.709693,39.397878 23.07811,39.79539 20.425651,40.04383 18.961619,39.936264 Z"
       id="path4575"
       inkscape:connector-curvature="0"
       transform="matrix(0.26458333,0,0,0.26458333,0,286.41667)" />
    <path
       style="opacity:0;fill:#1e1e1e;fill-opacity:1;stroke-width:0.08928572"
       d="M 18.961621,39.936264 C 16.077776,39.724382 13.643553,39.077458 11.253473,37.887734 9.1036493,36.817604 7.5669395,35.708639 5.8765964,34.007515 3.0029372,31.115528 1.1447439,27.487529 0.38933938,23.294008 0.19081838,22.191948 0.10861976,19.07403 0.24656745,17.878453 0.76821633,13.357384 2.7869833,9.1609716 5.9729624,5.9749928 8.9186939,3.0292617 12.544446,1.1599843 16.818764,0.3833772 c 1.255323,-0.22808155 4.279268,-0.27196866 5.765134,-0.0836705 4.370263,0.55382718 8.350334,2.5148734 11.513465,5.672873 3.101087,3.0960553 5.01207,6.9135233 5.676326,11.3392853 0.206536,1.376099 0.205493,4.131871 -0.0021,5.491072 C 38.5179,31.01234 32.666493,37.459312 24.709693,39.397878 23.07811,39.79539 20.425651,40.04383 18.961619,39.936264 Z"
       id="path4577"
       inkscape:connector-curvature="0"
       transform="matrix(0.26458333,0,0,0.26458333,0,286.41667)" />
    <path
       style="opacity:0;fill:#1e1e1e;fill-opacity:1;stroke-width:0.08928572"
       d="M 18.961621,39.936264 C 16.077776,39.724382 13.643553,39.077458 11.253473,37.887734 9.1036493,36.817604 7.5669395,35.708639 5.8765964,34.007515 3.0029372,31.115528 1.1447439,27.487529 0.38933938,23.294008 0.19081838,22.191948 0.10861976,19.07403 0.24656745,17.878453 0.76821633,13.357384 2.7869833,9.1609716 5.9729624,5.9749928 8.9186939,3.0292617 12.544446,1.1599843 16.818764,0.3833772 c 1.255323,-0.22808155 4.279268,-0.27196866 5.765134,-0.0836705 4.370263,0.55382718 8.350334,2.5148734 11.513465,5.672873 3.101087,3.0960553 5.01207,6.9135233 5.676326,11.3392853 0.206536,1.376099 0.205493,4.131871 -0.0021,5.491072 C 38.5179,31.01234 32.666493,37.459312 24.709693,39.397878 23.07811,39.79539 20.425651,40.04383 18.961619,39.936264 Z"
       id="path4579"
       inkscape:connector-curvature="0"
       transform="matrix(0.26458333,0,0,0.26458333,0,286.41667)" />
    <path
       style="opacity:0;fill:#1e1e1e;fill-opacity:1;stroke-width:0.08928572"
       d="M 18.961621,39.936264 C 16.077776,39.724382 13.643553,39.077458 11.253473,37.887734 9.1036493,36.817604 7.5669395,35.708639 5.8765964,34.007515 3.0029372,31.115528 1.1447439,27.487529 0.38933938,23.294008 0.19081838,22.191948 0.10861976,19.07403 0.24656745,17.878453 0.76821633,13.357384 2.7869833,9.1609716 5.9729624,5.9749928 8.9186939,3.0292617 12.544446,1.1599843 16.818764,0.3833772 c 1.255323,-0.22808155 4.279268,-0.27196866 5.765134,-0.0836705 4.370263,0.55382718 8.350334,2.5148734 11.513465,5.672873 3.101087,3.0960553 5.01207,6.9135233 5.676326,11.3392853 0.206536,1.376099 0.205493,4.131871 -0.0021,5.491072 C 38.5179,31.01234 32.666493,37.459312 24.709693,39.397878 23.07811,39.79539 20.425651,40.04383 18.961619,39.936264 Z"
       id="path4581"
       inkscape:connector-curvature="0"
       transform="matrix(0.26458333,0,0,0.26458333,0,286.41667)" />
    <path
       style="opacity:0;fill:#1e1e1e;fill-opacity:1;stroke-width:0.08928572"
       d="M 18.961621,39.936264 C 16.077776,39.724382 13.643553,39.077458 11.253473,37.887734 9.1036493,36.817604 7.5669395,35.708639 5.8765964,34.007515 3.0029372,31.115528 1.1447439,27.487529 0.38933938,23.294008 0.19081838,22.191948 0.10861976,19.07403 0.24656745,17.878453 0.76821633,13.357384 2.7869833,9.1609716 5.9729624,5.9749928 8.9186939,3.0292617 12.544446,1.1599843 16.818764,0.3833772 c 1.255323,-0.22808155 4.279268,-0.27196866 5.765134,-0.0836705 4.370263,0.55382718 8.350334,2.5148734 11.513465,5.672873 3.101087,3.0960553 5.01207,6.9135233 5.676326,11.3392853 0.206536,1.376099 0.205493,4.131871 -0.0021,5.491072 C 38.5179,31.01234 32.666493,37.459312 24.709693,39.397878 23.07811,39.79539 20.425651,40.04383 18.961619,39.936264 Z"
       id="path4583"
       inkscape:connector-curvature="0"
       transform="matrix(0.26458333,0,0,0.26458333,0,286.41667)" />
    <path
       style="opacity:0;fill:url(#radialGradient4593);fill-opacity:1;stroke-width:0.08928572"
       d="M 18.961621,39.936264 C 16.077776,39.724382 13.643553,39.077458 11.253473,37.887734 9.1036493,36.817604 7.5669395,35.708639 5.8765964,34.007515 3.0029372,31.115528 1.1447439,27.487529 0.38933938,23.294008 0.19081838,22.191948 0.10861976,19.07403 0.24656745,17.878453 0.76821633,13.357384 2.7869833,9.1609716 5.9729624,5.9749928 8.9186939,3.0292617 12.544446,1.1599843 16.818764,0.3833772 c 1.255323,-0.22808155 4.279268,-0.27196866 5.765134,-0.0836705 4.370263,0.55382718 8.350334,2.5148734 11.513465,5.672873 3.101087,3.0960553 5.01207,6.9135233 5.676326,11.3392853 0.206536,1.376099 0.205493,4.131871 -0.0021,5.491072 C 38.5179,31.01234 32.666493,37.459312 24.709693,39.397878 23.07811,39.79539 20.425651,40.04383 18.961619,39.936264 Z"
       id="path4585"
       inkscape:connector-curvature="0"
       transform="matrix(0.26458333,0,0,0.26458333,0,286.41667)" />
    <g
       id="g4598"
       style="fill:#ee0000;fill-opacity:1">
      <path
         transform="matrix(0.26458333,0,0,0.26458333,0,286.41667)"
         inkscape:connector-curvature="0"
         id="path4595"
         d="M 18.961621,39.936264 C 16.077776,39.724382 13.643553,39.077458 11.253473,37.887734 9.1036493,36.817604 7.5669395,35.708639 5.8765964,34.007515 3.0029372,31.115528 1.1447439,27.487529 0.38933938,23.294008 0.19081838,22.191948 0.10861976,19.07403 0.24656745,17.878453 0.76821633,13.357384 2.7869833,9.1609716 5.9729624,5.9749928 8.9186939,3.0292617 12.544446,1.1599843 16.818764,0.3833772 c 1.255323,-0.22808155 4.279268,-0.27196866 5.765134,-0.0836705 4.370263,0.55382718 8.350334,2.5148734 11.513465,5.672873 3.101087,3.0960553 5.01207,6.9135233 5.676326,11.3392853 0.206536,1.376099 0.205493,4.131871 -0.0021,5.491072 C 38.5179,31.01234 32.666493,37.459312 24.709693,39.397878 23.07811,39.79539 20.425651,40.04383 18.961619,39.936264 Z"
         style="opacity:0;fill:#ee0000;fill-opacity:1;stroke-width:0.08928572" />
    </g>
    <path
       style="opacity:0;fill:#ee0000;fill-opacity:1;stroke-width:0.08928572"
       d="M 18.961621,39.936264 C 16.077776,39.724382 13.643553,39.077458 11.253473,37.887734 9.1036493,36.817604 7.5669395,35.708639 5.8765964,34.007515 3.0029372,31.115528 1.1447439,27.487529 0.38933938,23.294008 0.19081838,22.191948 0.10861976,19.07403 0.24656745,17.878453 0.76821633,13.357384 2.7869833,9.1609716 5.9729624,5.9749928 8.9186939,3.0292617 12.544446,1.1599843 16.818764,0.3833772 c 1.255323,-0.22808155 4.279268,-0.27196866 5.765134,-0.0836705 4.370263,0.55382718 8.350334,2.5148734 11.513465,5.672873 3.101087,3.0960553 5.01207,6.9135233 5.676326,11.3392853 0.206536,1.376099 0.205493,4.131871 -0.0021,5.491072 C 38.5179,31.01234 32.666493,37.459312 24.709693,39.397878 23.07811,39.79539 20.425651,40.04383 18.961619,39.936264 Z"
       id="path4618"
       inkscape:connector-curvature="0"
       transform="matrix(0.26458333,0,0,0.26458333,0,286.41667)" />
    <path
       style="opacity:0;fill:#ee0000;fill-opacity:1;stroke-width:0.08928572"
       d="M 18.961621,39.936264 C 16.077776,39.724382 13.643553,39.077458 11.253473,37.887734 9.1036493,36.817604 7.5669395,35.708639 5.8765964,34.007515 3.0029372,31.115528 1.1447439,27.487529 0.38933938,23.294008 0.19081838,22.191948 0.10861976,19.07403 0.24656745,17.878453 0.76821633,13.357384 2.7869833,9.1609716 5.9729624,5.9749928 8.9186939,3.0292617 12.544446,1.1599843 16.818764,0.3833772 c 1.255323,-0.22808155 4.279268,-0.27196866 5.765134,-0.0836705 4.370263,0.55382718 8.350334,2.5148734 11.513465,5.672873 3.101087,3.0960553 5.01207,6.9135233 5.676326,11.3392853 0.206536,1.376099 0.205493,4.131871 -0.0021,5.491072 C 38.5179,31.01234 32.666493,37.459312 24.709693,39.397878 23.07811,39.79539 20.425651,40.04383 18.961619,39.936264 Z"
       id="path4620"
       inkscape:connector-curvature="0"
       transform="matrix(0.26458333,0,0,0.26458333,0,286.41667)" />
    <path
       style="opacity:0;fill:#ee0000;fill-opacity:1;stroke-width:0.08928572"
       d="M 18.961621,39.936264 C 16.077776,39.724382 13.643553,39.077458 11.253473,37.887734 9.1036493,36.817604 7.5669395,35.708639 5.8765964,34.007515 3.0029372,31.115528 1.1447439,27.487529 0.38933938,23.294008 0.19081838,22.191948 0.10861976,19.07403 0.24656745,17.878453 0.76821633,13.357384 2.7869833,9.1609716 5.9729624,5.9749928 8.9186939,3.0292617 12.544446,1.1599843 16.818764,0.3833772 c 1.255323,-0.22808155 4.279268,-0.27196866 5.765134,-0.0836705 4.370263,0.55382718 8.350334,2.5148734 11.513465,5.672873 3.101087,3.0960553 5.01207,6.9135233 5.676326,11.3392853 0.206536,1.376099 0.205493,4.131871 -0.0021,5.491072 C 38.5179,31.01234 32.666493,37.459312 24.709693,39.397878 23.07811,39.79539 20.425651,40.04383 18.961619,39.936264 Z"
       id="path4622"
       inkscape:connector-curvature="0"
       transform="matrix(0.26458333,0,0,0.26458333,0,286.41667)" />
    <path
       style="opacity:0;fill:#ee0000;fill-opacity:1;stroke-width:0.08928572"
       d="M 18.961621,39.936264 C 16.077776,39.724382 13.643553,39.077458 11.253473,37.887734 9.1036493,36.817604 7.5669395,35.708639 5.8765964,34.007515 3.0029372,31.115528 1.1447439,27.487529 0.38933938,23.294008 0.19081838,22.191948 0.10861976,19.07403 0.24656745,17.878453 0.76821633,13.357384 2.7869833,9.1609716 5.9729624,5.9749928 8.9186939,3.0292617 12.544446,1.1599843 16.818764,0.3833772 c 1.255323,-0.22808155 4.279268,-0.27196866 5.765134,-0.0836705 4.370263,0.55382718 8.350334,2.5148734 11.513465,5.672873 3.101087,3.0960553 5.01207,6.9135233 5.676326,11.3392853 0.206536,1.376099 0.205493,4.131871 -0.0021,5.491072 C 38.5179,31.01234 32.666493,37.459312 24.709693,39.397878 23.07811,39.79539 20.425651,40.04383 18.961619,39.936264 Z"
       id="path4624"
       inkscape:connector-curvature="0"
       transform="matrix(0.26458333,0,0,0.26458333,0,286.41667)" />
    <path
       style="opacity:0;fill:#ee0000;fill-opacity:1;stroke-width:0.08928572"
       d="M 18.961621,39.936264 C 16.077776,39.724382 13.643553,39.077458 11.253473,37.887734 9.1036493,36.817604 7.5669395,35.708639 5.8765964,34.007515 3.0029372,31.115528 1.1447439,27.487529 0.38933938,23.294008 0.19081838,22.191948 0.10861976,19.07403 0.24656745,17.878453 0.76821633,13.357384 2.7869833,9.1609716 5.9729624,5.9749928 8.9186939,3.0292617 12.544446,1.1599843 16.818764,0.3833772 c 1.255323,-0.22808155 4.279268,-0.27196866 5.765134,-0.0836705 4.370263,0.55382718 8.350334,2.5148734 11.513465,5.672873 3.101087,3.0960553 5.01207,6.9135233 5.676326,11.3392853 0.206536,1.376099 0.205493,4.131871 -0.0021,5.491072 C 38.5179,31.01234 32.666493,37.459312 24.709693,39.397878 23.07811,39.79539 20.425651,40.04383 18.961619,39.936264 Z"
       id="path4626"
       inkscape:connector-curvature="0"
       transform="matrix(0.26458333,0,0,0.26458333,0,286.41667)" />
    <path
       style="opacity:0;fill:#ee0000;fill-opacity:1;stroke-width:0.08928572"
       d="M 18.961621,39.936264 C 16.077776,39.724382 13.643553,39.077458 11.253473,37.887734 9.1036493,36.817604 7.5669395,35.708639 5.8765964,34.007515 3.0029372,31.115528 1.1447439,27.487529 0.38933938,23.294008 0.19081838,22.191948 0.10861976,19.07403 0.24656745,17.878453 0.76821633,13.357384 2.7869833,9.1609716 5.9729624,5.9749928 8.9186939,3.0292617 12.544446,1.1599843 16.818764,0.3833772 c 1.255323,-0.22808155 4.279268,-0.27196866 5.765134,-0.0836705 4.370263,0.55382718 8.350334,2.5148734 11.513465,5.672873 3.101087,3.0960553 5.01207,6.9135233 5.676326,11.3392853 0.206536,1.376099 0.205493,4.131871 -0.0021,5.491072 C 38.5179,31.01234 32.666493,37.459312 24.709693,39.397878 23.07811,39.79539 20.425651,40.04383 18.961619,39.936264 Z"
       id="path4628"
       inkscape:connector-curvature="0"
       transform="matrix(0.26458333,0,0,0.26458333,0,286.41667)" />
    <path
       style="opacity:0;fill:#ee0000;fill-opacity:1;stroke-width:0.08928572"
       d="M 18.961621,39.936264 C 16.077776,39.724382 13.643553,39.077458 11.253473,37.887734 9.1036493,36.817604 7.5669395,35.708639 5.8765964,34.007515 3.0029372,31.115528 1.1447439,27.487529 0.38933938,23.294008 0.19081838,22.191948 0.10861976,19.07403 0.24656745,17.878453 0.76821633,13.357384 2.7869833,9.1609716 5.9729624,5.9749928 8.9186939,3.0292617 12.544446,1.1599843 16.818764,0.3833772 c 1.255323,-0.22808155 4.279268,-0.27196866 5.765134,-0.0836705 4.370263,0.55382718 8.350334,2.5148734 11.513465,5.672873 3.101087,3.0960553 5.01207,6.9135233 5.676326,11.3392853 0.206536,1.376099 0.205493,4.131871 -0.0021,5.491072 C 38.5179,31.01234 32.666493,37.459312 24.709693,39.397878 23.07811,39.79539 20.425651,40.04383 18.961619,39.936264 Z"
       id="path4630"
       inkscape:connector-curvature="0"
       transform="matrix(0.26458333,0,0,0.26458333,0,286.41667)" />
    <path
       style="opacity:0;fill:#ee0000;fill-opacity:1;stroke-width:0.08928572"
       d="M 18.961621,39.936264 C 16.077776,39.724382 13.643553,39.077458 11.253473,37.887734 9.1036493,36.817604 7.5669395,35.708639 5.8765964,34.007515 3.0029372,31.115528 1.1447439,27.487529 0.38933938,23.294008 0.19081838,22.191948 0.10861976,19.07403 0.24656745,17.878453 0.76821633,13.357384 2.7869833,9.1609716 5.9729624,5.9749928 8.9186939,3.0292617 12.544446,1.1599843 16.818764,0.3833772 c 1.255323,-0.22808155 4.279268,-0.27196866 5.765134,-0.0836705 4.370263,0.55382718 8.350334,2.5148734 11.513465,5.672873 3.101087,3.0960553 5.01207,6.9135233 5.676326,11.3392853 0.206536,1.376099 0.205493,4.131871 -0.0021,5.491072 C 38.5179,31.01234 32.666493,37.459312 24.709693,39.397878 23.07811,39.79539 20.425651,40.04383 18.961619,39.936264 Z"
       id="path4632"
       inkscape:connector-curvature="0"
       transform="matrix(0.26458333,0,0,0.26458333,0,286.41667)" />
    <path
       style="opacity:0;fill:#ee0000;fill-opacity:1;stroke-width:0.08928572"
       d="M 18.961621,39.936264 C 16.077776,39.724382 13.643553,39.077458 11.253473,37.887734 9.1036493,36.817604 7.5669395,35.708639 5.8765964,34.007515 3.0029372,31.115528 1.1447439,27.487529 0.38933938,23.294008 0.19081838,22.191948 0.10861976,19.07403 0.24656745,17.878453 0.76821633,13.357384 2.7869833,9.1609716 5.9729624,5.9749928 8.9186939,3.0292617 12.544446,1.1599843 16.818764,0.3833772 c 1.255323,-0.22808155 4.279268,-0.27196866 5.765134,-0.0836705 4.370263,0.55382718 8.350334,2.5148734 11.513465,5.672873 3.101087,3.0960553 5.01207,6.9135233 5.676326,11.3392853 0.206536,1.376099 0.205493,4.131871 -0.0021,5.491072 C 38.5179,31.01234 32.666493,37.459312 24.709693,39.397878 23.07811,39.79539 20.425651,40.04383 18.961619,39.936264 Z"
       id="path4634"
       inkscape:connector-curvature="0"
       transform="matrix(0.26458333,0,0,0.26458333,0,286.41667)" />
    <path
       style="opacity:0;fill:#ee0000;fill-opacity:1;stroke-width:0.08928572"
       d="M 18.961621,39.936264 C 16.077776,39.724382 13.643553,39.077458 11.253473,37.887734 9.1036493,36.817604 7.5669395,35.708639 5.8765964,34.007515 3.0029372,31.115528 1.1447439,27.487529 0.38933938,23.294008 0.19081838,22.191948 0.10861976,19.07403 0.24656745,17.878453 0.76821633,13.357384 2.7869833,9.1609716 5.9729624,5.9749928 8.9186939,3.0292617 12.544446,1.1599843 16.818764,0.3833772 c 1.255323,-0.22808155 4.279268,-0.27196866 5.765134,-0.0836705 4.370263,0.55382718 8.350334,2.5148734 11.513465,5.672873 3.101087,3.0960553 5.01207,6.9135233 5.676326,11.3392853 0.206536,1.376099 0.205493,4.131871 -0.0021,5.491072 C 38.5179,31.01234 32.666493,37.459312 24.709693,39.397878 23.07811,39.79539 20.425651,40.04383 18.961619,39.936264 Z"
       id="path4636"
       inkscape:connector-curvature="0"
       transform="matrix(0.26458333,0,0,0.26458333,0,286.41667)" />
    <path
       style="opacity:0;fill:#ee0000;fill-opacity:1;stroke-width:0.08928572"
       d="M 18.961621,39.936264 C 16.077776,39.724382 13.643553,39.077458 11.253473,37.887734 9.1036493,36.817604 7.5669395,35.708639 5.8765964,34.007515 3.0029372,31.115528 1.1447439,27.487529 0.38933938,23.294008 0.19081838,22.191948 0.10861976,19.07403 0.24656745,17.878453 0.76821633,13.357384 2.7869833,9.1609716 5.9729624,5.9749928 8.9186939,3.0292617 12.544446,1.1599843 16.818764,0.3833772 c 1.255323,-0.22808155 4.279268,-0.27196866 5.765134,-0.0836705 4.370263,0.55382718 8.350334,2.5148734 11.513465,5.672873 3.101087,3.0960553 5.01207,6.9135233 5.676326,11.3392853 0.206536,1.376099 0.205493,4.131871 -0.0021,5.491072 C 38.5179,31.01234 32.666493,37.459312 24.709693,39.397878 23.07811,39.79539 20.425651,40.04383 18.961619,39.936264 Z"
       id="path4638"
       inkscape:connector-curvature="0"
       transform="matrix(0.26458333,0,0,0.26458333,0,286.41667)" />
    <path
       style="opacity:0;fill:#ee0000;fill-opacity:1;stroke-width:0.08928572"
       d="M 18.961621,39.936264 C 16.077776,39.724382 13.643553,39.077458 11.253473,37.887734 9.1036493,36.817604 7.5669395,35.708639 5.8765964,34.007515 3.0029372,31.115528 1.1447439,27.487529 0.38933938,23.294008 0.19081838,22.191948 0.10861976,19.07403 0.24656745,17.878453 0.76821633,13.357384 2.7869833,9.1609716 5.9729624,5.9749928 8.9186939,3.0292617 12.544446,1.1599843 16.818764,0.3833772 c 1.255323,-0.22808155 4.279268,-0.27196866 5.765134,-0.0836705 4.370263,0.55382718 8.350334,2.5148734 11.513465,5.672873 3.101087,3.0960553 5.01207,6.9135233 5.676326,11.3392853 0.206536,1.376099 0.205493,4.131871 -0.0021,5.491072 C 38.5179,31.01234 32.666493,37.459312 24.709693,39.397878 23.07811,39.79539 20.425651,40.04383 18.961619,39.936264 Z"
       id="path4640"
       inkscape:connector-curvature="0"
       transform="matrix(0.26458333,0,0,0.26458333,0,286.41667)" />
    <path
       style="opacity:0;fill:#ee0000;fill-opacity:1;stroke-width:0.08928572"
       d="M 18.961621,39.936264 C 16.077776,39.724382 13.643553,39.077458 11.253473,37.887734 9.1036493,36.817604 7.5669395,35.708639 5.8765964,34.007515 3.0029372,31.115528 1.1447439,27.487529 0.38933938,23.294008 0.19081838,22.191948 0.10861976,19.07403 0.24656745,17.878453 0.76821633,13.357384 2.7869833,9.1609716 5.9729624,5.9749928 8.9186939,3.0292617 12.544446,1.1599843 16.818764,0.3833772 c 1.255323,-0.22808155 4.279268,-0.27196866 5.765134,-0.0836705 4.370263,0.55382718 8.350334,2.5148734 11.513465,5.672873 3.101087,3.0960553 5.01207,6.9135233 5.676326,11.3392853 0.206536,1.376099 0.205493,4.131871 -0.0021,5.491072 C 38.5179,31.01234 32.666493,37.459312 24.709693,39.397878 23.07811,39.79539 20.425651,40.04383 18.961619,39.936264 Z"
       id="path4642"
       inkscape:connector-curvature="0"
       transform="matrix(0.26458333,0,0,0.26458333,0,286.41667)" />
    <path
       style="opacity:0;fill:#ee0000;fill-opacity:1;stroke-width:0.08928572"
       d="M 18.961621,39.936264 C 16.077776,39.724382 13.643553,39.077458 11.253473,37.887734 9.1036493,36.817604 7.5669395,35.708639 5.8765964,34.007515 3.0029372,31.115528 1.1447439,27.487529 0.38933938,23.294008 0.19081838,22.191948 0.10861976,19.07403 0.24656745,17.878453 0.76821633,13.357384 2.7869833,9.1609716 5.9729624,5.9749928 8.9186939,3.0292617 12.544446,1.1599843 16.818764,0.3833772 c 1.255323,-0.22808155 4.279268,-0.27196866 5.765134,-0.0836705 4.370263,0.55382718 8.350334,2.5148734 11.513465,5.672873 3.101087,3.0960553 5.01207,6.9135233 5.676326,11.3392853 0.206536,1.376099 0.205493,4.131871 -0.0021,5.491072 C 38.5179,31.01234 32.666493,37.459312 24.709693,39.397878 23.07811,39.79539 20.425651,40.04383 18.961619,39.936264 Z"
       id="path4644"
       inkscape:connector-curvature="0"
       transform="matrix(0.26458333,0,0,0.26458333,0,286.41667)" />
    <path
       style="opacity:0;fill:#ee0000;fill-opacity:1;stroke-width:0.08928572"
       d="M 18.961621,39.936264 C 16.077776,39.724382 13.643553,39.077458 11.253473,37.887734 9.1036493,36.817604 7.5669395,35.708639 5.8765964,34.007515 3.0029372,31.115528 1.1447439,27.487529 0.38933938,23.294008 0.19081838,22.191948 0.10861976,19.07403 0.24656745,17.878453 0.76821633,13.357384 2.7869833,9.1609716 5.9729624,5.9749928 8.9186939,3.0292617 12.544446,1.1599843 16.818764,0.3833772 c 1.255323,-0.22808155 4.279268,-0.27196866 5.765134,-0.0836705 4.370263,0.55382718 8.350334,2.5148734 11.513465,5.672873 3.101087,3.0960553 5.01207,6.9135233 5.676326,11.3392853 0.206536,1.376099 0.205493,4.131871 -0.0021,5.491072 C 38.5179,31.01234 32.666493,37.459312 24.709693,39.397878 23.07811,39.79539 20.425651,40.04383 18.961619,39.936264 Z"
       id="path4646"
       inkscape:connector-curvature="0"
       transform="matrix(0.26458333,0,0,0.26458333,0,286.41667)" />
    <path
       style="opacity:0;fill:#ee0000;fill-opacity:1;stroke-width:0.08928572"
       d="M 18.961621,39.936264 C 16.077776,39.724382 13.643553,39.077458 11.253473,37.887734 9.1036493,36.817604 7.5669395,35.708639 5.8765964,34.007515 3.0029372,31.115528 1.1447439,27.487529 0.38933938,23.294008 0.19081838,22.191948 0.10861976,19.07403 0.24656745,17.878453 0.76821633,13.357384 2.7869833,9.1609716 5.9729624,5.9749928 8.9186939,3.0292617 12.544446,1.1599843 16.818764,0.3833772 c 1.255323,-0.22808155 4.279268,-0.27196866 5.765134,-0.0836705 4.370263,0.55382718 8.350334,2.5148734 11.513465,5.672873 3.101087,3.0960553 5.01207,6.9135233 5.676326,11.3392853 0.206536,1.376099 0.205493,4.131871 -0.0021,5.491072 C 38.5179,31.01234 32.666493,37.459312 24.709693,39.397878 23.07811,39.79539 20.425651,40.04383 18.961619,39.936264 Z"
       id="path4648"
       inkscape:connector-curvature="0"
       transform="matrix(0.26458333,0,0,0.26458333,0,286.41667)" />
    <path
       style="opacity:0;fill:#ee0000;fill-opacity:1;stroke-width:0.08928572"
       d="M 18.961621,39.936264 C 16.077776,39.724382 13.643553,39.077458 11.253473,37.887734 9.1036493,36.817604 7.5669395,35.708639 5.8765964,34.007515 3.0029372,31.115528 1.1447439,27.487529 0.38933938,23.294008 0.19081838,22.191948 0.10861976,19.07403 0.24656745,17.878453 0.76821633,13.357384 2.7869833,9.1609716 5.9729624,5.9749928 8.9186939,3.0292617 12.544446,1.1599843 16.818764,0.3833772 c 1.255323,-0.22808155 4.279268,-0.27196866 5.765134,-0.0836705 4.370263,0.55382718 8.350334,2.5148734 11.513465,5.672873 3.101087,3.0960553 5.01207,6.9135233 5.676326,11.3392853 0.206536,1.376099 0.205493,4.131871 -0.0021,5.491072 C 38.5179,31.01234 32.666493,37.459312 24.709693,39.397878 23.07811,39.79539 20.425651,40.04383 18.961619,39.936264 Z"
       id="path4650"
       inkscape:connector-curvature="0"
       transform="matrix(0.26458333,0,0,0.26458333,0,286.41667)" />
    <path
       style="opacity:0;fill:#ee0000;fill-opacity:1;stroke-width:0.08928572"
       d="M 18.961621,39.936264 C 16.077776,39.724382 13.643553,39.077458 11.253473,37.887734 9.1036493,36.817604 7.5669395,35.708639 5.8765964,34.007515 3.0029372,31.115528 1.1447439,27.487529 0.38933938,23.294008 0.19081838,22.191948 0.10861976,19.07403 0.24656745,17.878453 0.76821633,13.357384 2.7869833,9.1609716 5.9729624,5.9749928 8.9186939,3.0292617 12.544446,1.1599843 16.818764,0.3833772 c 1.255323,-0.22808155 4.279268,-0.27196866 5.765134,-0.0836705 4.370263,0.55382718 8.350334,2.5148734 11.513465,5.672873 3.101087,3.0960553 5.01207,6.9135233 5.676326,11.3392853 0.206536,1.376099 0.205493,4.131871 -0.0021,5.491072 C 38.5179,31.01234 32.666493,37.459312 24.709693,39.397878 23.07811,39.79539 20.425651,40.04383 18.961619,39.936264 Z"
       id="path4652"
       inkscape:connector-curvature="0"
       transform="matrix(0.26458333,0,0,0.26458333,0,286.41667)" />
    <path
       style="opacity:0;fill:#ee0000;fill-opacity:1;stroke-width:0.08928572"
       d="M 18.961621,39.936264 C 16.077776,39.724382 13.643553,39.077458 11.253473,37.887734 9.1036493,36.817604 7.5669395,35.708639 5.8765964,34.007515 3.0029372,31.115528 1.1447439,27.487529 0.38933938,23.294008 0.19081838,22.191948 0.10861976,19.07403 0.24656745,17.878453 0.76821633,13.357384 2.7869833,9.1609716 5.9729624,5.9749928 8.9186939,3.0292617 12.544446,1.1599843 16.818764,0.3833772 c 1.255323,-0.22808155 4.279268,-0.27196866 5.765134,-0.0836705 4.370263,0.55382718 8.350334,2.5148734 11.513465,5.672873 3.101087,3.0960553 5.01207,6.9135233 5.676326,11.3392853 0.206536,1.376099 0.205493,4.131871 -0.0021,5.491072 C 38.5179,31.01234 32.666493,37.459312 24.709693,39.397878 23.07811,39.79539 20.425651,40.04383 18.961619,39.936264 Z"
       id="path4654"
       inkscape:connector-curvature="0"
       transform="matrix(0.26458333,0,0,0.26458333,0,286.41667)" />
    <path
       style="opacity:1;fill:#1e1e1e;fill-opacity:1;stroke:#f2ebee;stroke-width:0.64521819;stroke-linecap:square;stroke-linejoin:round;stroke-miterlimit:4;stroke-dasharray:none;stroke-dashoffset:0;stroke-opacity:1;paint-order:normal"
       d="m 6.2712621,296.66844 c -0.9125758,-0.067 -1.6828701,-0.27155 -2.4391963,-0.64775 -0.6802986,-0.33838 -1.166581,-0.68902 -1.7014797,-1.22693 -0.9093521,-0.91445 -1.49736615,-2.06163 -1.73640928,-3.38761 -0.0628208,-0.34849 -0.0888318,-1.33436 -0.0451797,-1.71242 0.16507243,-1.42955 0.80389918,-2.75646 1.81208268,-3.76386 0.9321589,-0.93146 2.0795059,-1.52253 3.432087,-1.76807 0.3972403,-0.0721 1.3541488,-0.086 1.8243426,-0.0266 1.3829416,0.17514 2.6424106,0.79519 3.6433646,1.79376 0.981321,0.97898 1.586038,2.18607 1.79624,3.58551 0.06534,0.43513 0.065,1.30649 -6.65e-4,1.73628 -0.396723,2.59582 -2.248364,4.63434 -4.7662457,5.24732 -0.5163041,0.1257 -1.3556579,0.20426 -1.8189412,0.17024 z"
       id="path4656"
       inkscape:connector-curvature="0" />
    <text
       xml:space="preserve"
       style="font-style:normal;font-weight:normal;font-size:10.58333302px;line-height:1.25;font-family:sans-serif;letter-spacing:0px;word-spacing:0px;fill:#000000;fill-opacity:1;stroke:none;stroke-width:0.26458332"
       x="2.3623512"
       y="290.66891"
       id="text4662"><tspan
         sodipodi:role="line"
         id="tspan4660"
         x="2.3623512"
         y="300.03268"
         style="stroke-width:0.26458332" /></text>
    <text
       xml:space="preserve"
       style="font-style:normal;font-weight:normal;font-size:10.70603275px;line-height:1.25;font-family:sans-serif;letter-spacing:0px;word-spacing:0px;fill:#000000;fill-opacity:1;stroke:none;stroke-width:3.72617269;stroke-miterlimit:4;stroke-dasharray:none"
       x="0.14099081"
       y="260.47443"
       id="text4666"
       transform="scale(0.88670098,1.1277759)"><tspan
         sodipodi:role="line"
         id="tspan4664"
         x="0.14099081"
         y="269.94675"
         style="font-style:normal;font-variant:normal;font-weight:bold;font-stretch:normal;font-size:5.70972919px;font-family:sans-serif;-inkscape-font-specification:'sans-serif, Bold';font-variant-ligatures:normal;font-variant-caps:normal;font-variant-numeric:normal;font-feature-settings:normal;text-align:start;writing-mode:lr-tb;text-anchor:start;fill:#f2ebee;fill-opacity:1;stroke-width:3.72617269;stroke-miterlimit:4;stroke-dasharray:none" /></text>
    <path
       style="fill:#f2ebee;fill-opacity:1;stroke:none;stroke-width:0.28294227;stroke-linecap:butt;stroke-linejoin:miter;stroke-miterlimit:4;stroke-dasharray:none;stroke-opacity:1"
       d="m 1.3229167,290.04808 3.6187503,-1.46203 0.00674,0.79909 -2.7224865,1.04176 2.735964,1.04175 0.00674,0.81682 -3.6457058,-1.4916 z"
       id="path968"
       inkscape:connector-curvature="0"
       sodipodi:nodetypes="cccccccc" />
    <path
       style="fill:#f2ebee;fill-opacity:1;stroke:none;stroke-width:0.28294227;stroke-linecap:butt;stroke-linejoin:miter;stroke-miterlimit:4;stroke-dasharray:none;stroke-opacity:1"
       d="m 11.90625,290.05104 -3.6187504,-1.46202 -0.00674,0.79908 2.7224864,1.04177 -2.7359641,1.04175 -0.00674,0.81682 3.6457061,-1.4916 z"
       id="path968-4"
       inkscape:connector-curvature="0"
       sodipodi:nodetypes="cccccccc" />
    <path
       style="fill:#f2ebee;fill-opacity:1;stroke:none;stroke-width:0.28294227px;stroke-linecap:butt;stroke-linejoin:miter;stroke-opacity:1"
       d="m 7.0239648,287.73962 0.6334497,0.0118 -1.482542,5.27984 H 5.568378 Z"
       id="path985"
       inkscape:connector-curvature="0" />
  </g>
</svg>
